<svg xmlns="http://www.w3.org/2000/svg" xmlns:xlink="http://www.w3.org/1999/xlink" width="1920" zoomAndPan="magnify" viewBox="0 0 1440 809.999993" height="1080" preserveAspectRatio="xMidYMid meet" version="1.0"><defs><g/><clipPath id="id1"><path d="M 34 164.089844 L 744 164.089844 L 744 689.046875 L 34 689.046875 Z M 34 164.089844 " clip-rule="nonzero"/></clipPath><clipPath id="id2"><path d="M 245.0625 254 L 575.992188 254 L 575.992188 551 L 245.0625 551 Z M 245.0625 254 " clip-rule="nonzero"/></clipPath></defs><rect x="-144" width="1728" fill="#ffffff" y="-80.999999" height="971.999992" fill-opacity="1"/><rect x="-144" width="1728" fill="#ffffff" y="-80.999999" height="971.999992" fill-opacity="1"/><g clip-path="url(#id1)"><path fill="#5421a0" d="M 732.234375 275.78125 C 720.003906 339.265625 707.769531 402.746094 695.539062 466.222656 C 693.921875 457.929688 686.484375 453.507812 680.445312 448.273438 C 683.675781 431.5 686.917969 414.707031 690.152344 397.910156 L 703.261719 410.3125 C 700.917969 404.96875 695.625 400.40625 690.386719 396.691406 C 691.757812 389.589844 693.121094 382.476562 694.492188 375.382812 L 699.691406 348.40625 L 714.351562 362.652344 C 711.789062 356.179688 706.042969 350.796875 700.058594 346.480469 L 709.3125 298.507812 L 722.335938 312.128906 C 720.589844 306.546875 715.296875 300.707031 709.765625 296.128906 L 718.035156 253.214844 L 718.082031 253.246094 L 718.035156 253.207031 L 718.847656 249.003906 C 721.078125 237.800781 721.363281 226.871094 719.824219 216.726562 C 731.761719 230.234375 736.988281 251.949219 732.234375 275.78125 Z M 671.105469 593.027344 C 663.261719 632.480469 637.730469 665.390625 613.65625 665.390625 C 613.210938 665.390625 612.765625 665.378906 612.324219 665.351562 C 514.925781 660.683594 417.730469 634.539062 320.449219 615.328125 C 308.738281 623.488281 291.394531 631.375 271.75 638.675781 C 271.050781 632.226562 266.664062 625.171875 261.921875 619.738281 C 268.632812 616 275.058594 612.296875 281.082031 608.707031 L 291.082031 628.683594 C 291.476562 622.308594 288.707031 613.269531 284.171875 606.847656 C 289.785156 603.445312 295.003906 600.148438 299.664062 597.011719 C 303.039062 597.683594 306.421875 598.382812 309.796875 599.074219 L 319.691406 615.09375 C 319.902344 610.785156 317.046875 605.050781 313.40625 599.800781 C 328.171875 602.832031 342.953125 605.976562 357.519531 609.101562 L 359.769531 619.378906 C 359.863281 616.28125 359.796875 612.863281 359.390625 609.5 C 361.8125 610.027344 364.257812 610.546875 366.671875 611.066406 C 382.992188 614.574219 399.449219 618.105469 415.992188 621.515625 L 417.023438 630.828125 C 417.023438 628.203125 417.039062 624.933594 416.851562 621.695312 C 430.71875 624.554688 444.640625 627.3125 458.601562 629.910156 L 458.527344 640.121094 C 458.941406 637.902344 459.652344 634.011719 459.953125 630.15625 C 473.734375 632.71875 487.5625 635.078125 501.402344 637.203125 L 500.730469 650.484375 C 501.617188 650.550781 501.761719 651.824219 502.195312 650.550781 C 502.15625 648.066406 502.527344 642.277344 502.507812 637.375 C 514.171875 639.148438 525.855469 640.726562 537.527344 642.085938 L 536.527344 655.121094 C 538.566406 652.242188 539.324219 646.921875 539.011719 642.257812 C 549.257812 643.429688 559.503906 644.421875 569.742188 645.195312 L 568.71875 660.855469 C 573.425781 659.976562 574.125 651.804688 572.878906 645.429688 C 578.238281 645.816406 583.605469 646.15625 588.964844 646.414062 C 589.542969 646.441406 590.15625 646.449219 590.761719 646.449219 C 595.726562 646.449219 600.707031 645.375 605.59375 643.390625 L 607.359375 661.5625 C 611.273438 657.066406 611.691406 648.539062 609.703125 641.511719 C 619.628906 636.402344 629.042969 627.542969 637.019531 616.113281 L 651.019531 636.542969 C 651.984375 630.074219 645.605469 619.285156 638.882812 613.34375 C 647.363281 600.375 654.007812 584.414062 657.5625 566.949219 L 672.390625 586.367188 C 670.8125 577.867188 664.734375 570.992188 657.988281 564.8125 C 661.464844 546.78125 664.933594 528.769531 668.402344 510.738281 L 683.367188 529.394531 C 681.597656 517.765625 675.140625 510.957031 669.1875 506.6875 C 672.921875 487.3125 676.65625 467.941406 680.386719 448.585938 L 695.503906 466.429688 C 687.375 508.621094 679.246094 550.824219 671.105469 593.027344 Z M 139.050781 571.859375 C 145.488281 574.550781 152.160156 576.289062 158.824219 576.742188 C 159.996094 576.820312 161.132812 576.902344 162.285156 576.988281 L 166.238281 585.59375 C 166.691406 583.175781 166.160156 580.132812 165.054688 577.179688 C 167.238281 577.339844 169.382812 577.507812 171.472656 577.6875 C 170.386719 582.222656 168.875 587.078125 167.019531 592.109375 C 156.652344 588.078125 146.8125 580.957031 139.050781 571.859375 Z M 205.367188 649.53125 L 210.207031 657.992188 C 210.839844 654.660156 209.601562 651.269531 207.550781 648.425781 C 215.992188 644.164062 224.585938 639.753906 233.101562 635.296875 L 239.558594 647.632812 C 239.699219 642.570312 238.742188 637.6875 236.511719 633.5 C 244.820312 629.117188 253.007812 624.699219 260.84375 620.34375 L 271.742188 638.675781 C 236.75 651.664062 194.441406 662.753906 163.523438 670.09375 C 175.925781 664.132812 190.347656 657.085938 205.367188 649.53125 Z M 101.921875 516.90625 C 83.292969 446.082031 64.644531 375.269531 46.003906 304.457031 C 38.679688 277.433594 60.457031 263.085938 92.480469 254.972656 C 238.554688 217.957031 473.753906 179.277344 664.082031 173.863281 C 664.546875 173.847656 665.019531 173.847656 665.472656 173.847656 C 697.648438 173.847656 717.222656 207.59375 709.339844 247.171875 C 688.960938 352.941406 668.574219 458.664062 648.203125 564.4375 C 641.9375 595.964844 624.355469 623.308594 605.261719 633.011719 C 605.015625 632.753906 604.769531 632.480469 604.515625 632.253906 L 604.621094 633.339844 C 600.035156 635.570312 595.375 636.777344 590.761719 636.777344 C 590.316406 636.777344 589.875 636.769531 589.429688 636.75 C 511.65625 633.019531 434.027344 615.613281 356.375 598.96875 C 355.902344 598.089844 355.375 597.269531 354.769531 596.503906 L 355.25 598.722656 C 337.785156 594.972656 320.316406 591.289062 302.847656 587.792969 L 302.828125 587.785156 L 302.839844 587.792969 C 301.082031 587.445312 299.324219 587.078125 297.554688 586.726562 C 281.089844 598.195312 256.042969 612.296875 229.933594 626 C 229.132812 625.433594 228.308594 624.878906 227.382812 624.386719 L 228.601562 626.699219 C 176.53125 653.988281 120.761719 679.546875 120.761719 679.546875 C 147.738281 656.972656 179.382812 602.652344 182.796875 568.996094 C 175.027344 568.261719 167.265625 567.582031 159.496094 567.097656 C 148.722656 566.363281 137.699219 561.761719 128.097656 554.554688 L 127.832031 553.980469 C 127.453125 553.828125 127.113281 553.628906 126.746094 553.46875 C 115.195312 544.355469 105.875 531.441406 101.921875 516.90625 Z M 728.414062 211.855469 C 724.652344 207.265625 720.304688 203.46875 715.53125 200.480469 C 713.035156 194.144531 709.699219 188.324219 705.511719 183.242188 C 695.417969 170.945312 681.191406 164.171875 665.472656 164.171875 C 664.914062 164.171875 664.355469 164.171875 663.789062 164.203125 C 468.375 169.757812 229.425781 210.285156 90.109375 245.601562 C 64.257812 252.148438 47.875 261.847656 40.039062 275.253906 C 34.605469 284.539062 33.472656 295.210938 36.65625 306.988281 C 55.285156 377.734375 73.925781 448.550781 92.566406 519.371094 C 96.921875 535.417969 107.207031 550.003906 120.195312 560.488281 C 129.042969 578.800781 145.328125 593.925781 163.4375 601.035156 C 151.972656 627.691406 132.417969 657.171875 114.542969 672.132812 C 114.097656 672.5 113.699219 672.90625 113.34375 673.34375 L 113 673.816406 C 112.785156 674.105469 112.566406 674.398438 112.386719 674.710938 L 112.085938 675.316406 C 111.941406 675.609375 111.800781 675.902344 111.6875 676.203125 C 111.613281 676.429688 111.554688 676.648438 111.488281 676.875 C 111.402344 677.175781 111.320312 677.480469 111.261719 677.792969 C 111.214844 678.027344 111.195312 678.261719 111.167969 678.488281 C 111.128906 678.800781 111.109375 679.113281 111.101562 679.425781 C 111.101562 679.671875 111.109375 679.90625 111.128906 680.152344 C 111.148438 680.453125 111.175781 680.757812 111.226562 681.058594 C 111.261719 681.304688 111.308594 681.550781 111.367188 681.796875 C 111.441406 682.097656 111.535156 682.390625 111.632812 682.675781 C 111.714844 682.921875 111.800781 683.15625 111.90625 683.402344 L 112.027344 683.722656 C 112.140625 683.960938 112.292969 684.1875 112.425781 684.421875 L 112.578125 684.714844 L 112.660156 684.828125 L 112.972656 685.261719 L 113.457031 685.875 L 113.824219 686.265625 L 114.382812 686.8125 L 114.789062 687.140625 L 115.421875 687.585938 L 115.855469 687.859375 C 116.074219 687.992188 116.300781 688.113281 116.535156 688.226562 L 117.007812 688.445312 C 117.246094 688.550781 117.480469 688.632812 117.726562 688.710938 L 118.21875 688.859375 C 118.484375 688.9375 118.75 688.984375 119.011719 689.039062 L 119.476562 689.125 C 119.882812 689.171875 120.289062 689.210938 120.695312 689.210938 L 120.753906 689.21875 L 120.761719 689.21875 L 120.867188 689.203125 C 121.453125 689.203125 122.046875 689.152344 122.644531 689.03125 C 128.710938 687.832031 268.953125 659.808594 322.492188 625.59375 C 344.902344 630.0625 367.625 634.945312 389.648438 639.6875 C 462.308594 655.300781 537.441406 671.445312 611.859375 675.015625 C 612.4375 675.042969 613.042969 675.0625 613.65625 675.0625 C 642.257812 675.0625 671.664062 639.859375 680.605469 594.917969 L 712.941406 427.0625 L 741.742188 277.613281 C 746.78125 252.300781 741.929688 228.308594 728.414062 211.855469 " fill-opacity="1" fill-rule="nonzero"/></g><path fill="#5421a0" d="M 718.082031 253.246094 L 732.847656 263.492188 C 730.683594 260.015625 723.933594 256.53125 718.082031 253.246094 " fill-opacity="1" fill-rule="nonzero"/><g clip-path="url(#id2)"><path fill="#5421a0" d="M 382.804688 258.941406 L 357.6875 272.054688 C 356.722656 272.582031 355.609375 272.808594 354.476562 272.742188 L 317.589844 270.25 C 306.023438 269.53125 297.742188 272.714844 291.65625 279.910156 C 285.574219 287.113281 281.605469 299.160156 281.605469 316.710938 C 281.605469 327.089844 280.695312 333.753906 277.480469 339.570312 C 274.230469 345.414062 269.597656 349.40625 262.863281 356.523438 C 254.074219 365.761719 251.867188 368.726562 250.578125 387.117188 L 245.695312 457.988281 C 244.941406 468.457031 244.183594 476.074219 245.316406 482.648438 C 246.453125 489.183594 249.195312 495.195312 256.753906 503.5 L 292.378906 542.582031 C 302.492188 553.675781 318.183594 549.753906 330.28125 547.839844 L 398.652344 537.054688 C 406.214844 535.855469 411.097656 532.925781 414.285156 529.152344 C 417.496094 525.410156 419.285156 520.542969 419.261719 514.8125 C 419.136719 496.917969 411.917969 500.578125 398.519531 500.601562 C 386.585938 500.628906 374.929688 498.8125 366.859375 492.117188 C 358.070312 484.878906 359.148438 483.316406 351.550781 490.480469 C 343.777344 497.8125 332.523438 500.601562 320.960938 500.601562 C 309.394531 500.601562 298.523438 497.402344 290.371094 490.480469 C 282.203125 483.554688 277.195312 472.832031 277.195312 459.75 L 280.726562 371.476562 C 280.21875 362.964844 289.824219 362.964844 289.328125 371.476562 L 289.328125 459.75 C 289.328125 469.917969 292.753906 476.613281 298.238281 481.261719 C 303.695312 485.917969 311.636719 488.46875 320.960938 488.46875 C 330.28125 488.46875 338.222656 485.910156 343.703125 481.261719 C 349.160156 476.613281 352.339844 469.917969 352.566406 459.75 L 355.234375 346.453125 C 355.492188 336.605469 364.71875 340.128906 364.71875 346.453125 L 364.71875 459.75 C 364.71875 468.378906 367.777344 477.996094 373.730469 482.171875 C 379.496094 486.261719 388.34375 488.46875 398.519531 488.46875 C 408.707031 488.46875 417.488281 486.195312 423.289062 482.171875 C 429.117188 478.144531 432.238281 472.832031 432.363281 464.1875 L 434.25 350.507812 C 434.402344 340.625 444.460938 344.15625 444.460938 350.507812 L 444.460938 464.1875 C 444.460938 472.832031 447.734375 478.144531 453.535156 482.171875 C 459.324219 486.195312 468.152344 488.46875 478.324219 488.46875 C 488.476562 488.46875 497.289062 486.195312 503.089844 482.171875 C 508.921875 478.144531 512.132812 472.832031 512.132812 464.1875 L 512.132812 369.558594 C 512.03125 361.414062 522.179688 361.414062 522.113281 369.558594 L 524.253906 455.4375 C 524.253906 465.757812 539.789062 468.804688 550.339844 468.804688 C 557.398438 468.804688 563.289062 465.605469 567.984375 459.15625 C 572.648438 452.703125 575.800781 442.929688 575.800781 430.878906 L 575.800781 355.03125 C 575.800781 342.867188 574.0625 333.5 570.597656 327.398438 C 567.160156 321.300781 562.40625 317.832031 553.425781 316.425781 L 522.109375 311.585938 C 520.597656 311.359375 519.210938 310.535156 518.265625 309.351562 L 495.359375 280.484375 C 491.226562 275.253906 481.089844 271.921875 472.863281 273.035156 L 441.957031 277.121094 C 440.542969 277.300781 439.085938 276.996094 437.894531 276.238281 L 410.199219 258.605469 C 401.351562 252.933594 391.050781 254.601562 382.804688 258.941406 Z M 382.804688 258.941406 " fill-opacity="1" fill-rule="nonzero"/></g><g fill="#5421a0" fill-opacity="1"><g transform="translate(790.136812, 496.779897)"><g><path d="M 24.5625 0 C 21.550781 0 18.207031 -0.90625 14.53125 -2.71875 C 10.851562 -4.53125 7.71875 -6.65625 5.125 -9.09375 C 2.539062 -11.53125 1.25 -13.628906 1.25 -15.390625 C 1.25 -17.148438 1.972656 -21.5 3.421875 -28.4375 C 4.867188 -35.382812 5.800781 -39.84375 6.21875 -41.8125 C 9.320312 -56.101562 11.394531 -66 12.4375 -71.5 L 13.984375 -80.203125 C 16.160156 -92.222656 18.15625 -101.910156 19.96875 -109.265625 C 21.78125 -116.617188 23.617188 -120.296875 25.484375 -120.296875 C 27.660156 -120.296875 30.535156 -119.363281 34.109375 -117.5 C 37.691406 -115.632812 40.828125 -113.457031 43.515625 -110.96875 C 46.210938 -108.476562 47.5625 -106.300781 47.5625 -104.4375 C 47.5625 -101.957031 47.117188 -99.550781 46.234375 -97.21875 C 45.359375 -94.882812 44.039062 -91.851562 42.28125 -88.125 C 40.613281 -84.914062 39.472656 -82.425781 38.859375 -80.65625 C 36.890625 -74.550781 34.789062 -66.054688 32.5625 -55.171875 C 30.332031 -44.296875 28.492188 -33.78125 27.046875 -23.625 C 30.359375 -25.28125 32.945312 -26.703125 34.8125 -27.890625 C 36.675781 -29.085938 38.851562 -30.722656 41.34375 -32.796875 C 45.90625 -31.242188 49.296875 -29.09375 51.515625 -26.34375 C 53.742188 -23.59375 54.859375 -20.457031 54.859375 -16.9375 C 54.859375 -14.445312 53.097656 -11.878906 49.578125 -9.234375 C 46.054688 -6.597656 41.859375 -4.398438 36.984375 -2.640625 C 32.117188 -0.878906 27.976562 0 24.5625 0 Z M 24.5625 0 "/></g></g></g><g fill="#5421a0" fill-opacity="1"><g transform="translate(849.97119, 496.779897)"><g><path d="M 36.671875 -87.8125 C 44.035156 -86.976562 50.75 -84.773438 56.8125 -81.203125 C 62.875 -77.628906 67.613281 -73.351562 71.03125 -68.375 C 74.445312 -63.40625 76.15625 -58.4375 76.15625 -53.46875 C 76.15625 -46.007812 74.238281 -38.082031 70.40625 -29.6875 C 66.570312 -21.289062 61.234375 -14.242188 54.390625 -8.546875 C 47.554688 -2.847656 39.941406 0 31.546875 0 C 27.398438 0 22.992188 -1.523438 18.328125 -4.578125 C 13.671875 -7.640625 9.757812 -11.367188 6.59375 -15.765625 C 3.4375 -20.171875 1.859375 -24.085938 1.859375 -27.515625 C 1.859375 -33.828125 2.632812 -40.328125 4.1875 -47.015625 C 5.75 -53.703125 8.132812 -60.203125 11.34375 -66.515625 C 14.351562 -68.171875 17.359375 -69 20.359375 -69 C 21.703125 -69 22.945312 -68.847656 24.09375 -68.546875 C 23.675781 -69.785156 23.46875 -71.234375 23.46875 -72.890625 C 23.46875 -76.203125 24.632812 -79.207031 26.96875 -81.90625 C 29.300781 -84.601562 32.535156 -86.570312 36.671875 -87.8125 Z M 25.953125 -17.71875 C 34.554688 -20.613281 41.238281 -25.582031 46 -32.625 C 50.769531 -39.675781 53.929688 -48.070312 55.484375 -57.8125 C 50.816406 -61.132812 44.5 -62.796875 36.53125 -62.796875 C 34.5625 -62.796875 33.054688 -62.742188 32.015625 -62.640625 C 33.160156 -60.566406 33.734375 -58.234375 33.734375 -55.640625 C 31.035156 -51.390625 28.957031 -46.695312 27.5 -41.5625 C 26.050781 -36.4375 25.328125 -31.285156 25.328125 -26.109375 C 25.328125 -23.003906 25.535156 -20.207031 25.953125 -17.71875 Z M 25.953125 -17.71875 "/></g></g></g><g fill="#5421a0" fill-opacity="1"><g transform="translate(929.387736, 496.779897)"><g><path d="M 51.4375 -82.375 C 57.144531 -82.269531 62.273438 -81.179688 66.828125 -79.109375 C 71.390625 -77.035156 74.988281 -74.1875 77.625 -70.5625 C 80.269531 -66.9375 81.59375 -62.84375 81.59375 -58.28125 C 81.59375 -50.40625 79.257812 -41.882812 74.59375 -32.71875 C 69.9375 -23.550781 63.695312 -15.804688 55.875 -9.484375 C 48.050781 -3.160156 39.734375 0 30.921875 0 C 26.367188 0 21.863281 -1.550781 17.40625 -4.65625 C 12.945312 -7.769531 9.265625 -11.445312 6.359375 -15.6875 C 3.460938 -19.9375 2.015625 -23.515625 2.015625 -26.421875 C 2.015625 -33.253906 4.296875 -44.597656 8.859375 -60.453125 C 10.828125 -66.984375 12.640625 -76 14.296875 -87.5 C 15.953125 -99 16.832031 -107.394531 16.9375 -112.6875 C 17.039062 -114.851562 17.789062 -116.6875 19.1875 -118.1875 C 20.59375 -119.695312 22.28125 -120.453125 24.25 -120.453125 C 27.039062 -120.453125 30.171875 -119.390625 33.640625 -117.265625 C 37.117188 -115.140625 40.070312 -112.648438 42.5 -109.796875 C 44.9375 -106.953125 46.15625 -104.546875 46.15625 -102.578125 C 46.050781 -97.609375 43.722656 -89.21875 39.171875 -77.40625 Z M 30.921875 -19.578125 C 34.660156 -19.578125 38.472656 -21.753906 42.359375 -26.109375 C 46.242188 -30.460938 49.453125 -35.644531 51.984375 -41.65625 C 54.523438 -47.664062 55.796875 -52.84375 55.796875 -57.1875 C 55.796875 -58.332031 54.863281 -59.523438 53 -60.765625 C 51.132812 -62.015625 48.929688 -63.078125 46.390625 -63.953125 C 43.847656 -64.835938 41.59375 -65.28125 39.625 -65.28125 C 38.488281 -65.28125 37.554688 -65.070312 36.828125 -64.65625 C 35.171875 -63.71875 33.566406 -61.304688 32.015625 -57.421875 C 30.460938 -53.535156 29.191406 -49.054688 28.203125 -43.984375 C 27.222656 -38.910156 26.734375 -34.300781 26.734375 -30.15625 C 26.734375 -26.9375 27.066406 -24.367188 27.734375 -22.453125 C 28.410156 -20.535156 29.472656 -19.578125 30.921875 -19.578125 Z M 30.921875 -19.578125 "/></g></g></g><g fill="#5421a0" fill-opacity="1"><g transform="translate(1014.865439, 496.779897)"><g><path d="M 51.4375 -82.375 C 57.144531 -82.269531 62.273438 -81.179688 66.828125 -79.109375 C 71.390625 -77.035156 74.988281 -74.1875 77.625 -70.5625 C 80.269531 -66.9375 81.59375 -62.84375 81.59375 -58.28125 C 81.59375 -50.40625 79.257812 -41.882812 74.59375 -32.71875 C 69.9375 -23.550781 63.695312 -15.804688 55.875 -9.484375 C 48.050781 -3.160156 39.734375 0 30.921875 0 C 26.367188 0 21.863281 -1.550781 17.40625 -4.65625 C 12.945312 -7.769531 9.265625 -11.445312 6.359375 -15.6875 C 3.460938 -19.9375 2.015625 -23.515625 2.015625 -26.421875 C 2.015625 -33.253906 4.296875 -44.597656 8.859375 -60.453125 C 10.828125 -66.984375 12.640625 -76 14.296875 -87.5 C 15.953125 -99 16.832031 -107.394531 16.9375 -112.6875 C 17.039062 -114.851562 17.789062 -116.6875 19.1875 -118.1875 C 20.59375 -119.695312 22.28125 -120.453125 24.25 -120.453125 C 27.039062 -120.453125 30.171875 -119.390625 33.640625 -117.265625 C 37.117188 -115.140625 40.070312 -112.648438 42.5 -109.796875 C 44.9375 -106.953125 46.15625 -104.546875 46.15625 -102.578125 C 46.050781 -97.609375 43.722656 -89.21875 39.171875 -77.40625 Z M 30.921875 -19.578125 C 34.660156 -19.578125 38.472656 -21.753906 42.359375 -26.109375 C 46.242188 -30.460938 49.453125 -35.644531 51.984375 -41.65625 C 54.523438 -47.664062 55.796875 -52.84375 55.796875 -57.1875 C 55.796875 -58.332031 54.863281 -59.523438 53 -60.765625 C 51.132812 -62.015625 48.929688 -63.078125 46.390625 -63.953125 C 43.847656 -64.835938 41.59375 -65.28125 39.625 -65.28125 C 38.488281 -65.28125 37.554688 -65.070312 36.828125 -64.65625 C 35.171875 -63.71875 33.566406 -61.304688 32.015625 -57.421875 C 30.460938 -53.535156 29.191406 -49.054688 28.203125 -43.984375 C 27.222656 -38.910156 26.734375 -34.300781 26.734375 -30.15625 C 26.734375 -26.9375 27.066406 -24.367188 27.734375 -22.453125 C 28.410156 -20.535156 29.472656 -19.578125 30.921875 -19.578125 Z M 30.921875 -19.578125 "/></g></g></g><g fill="#5421a0" fill-opacity="1"><g transform="translate(1100.343141, 496.779897)"><g><path d="M 34.34375 -92.171875 C 32.375 -92.171875 30.015625 -92.972656 27.265625 -94.578125 C 24.523438 -96.179688 22.171875 -98.097656 20.203125 -100.328125 C 18.234375 -102.554688 17.25 -104.550781 17.25 -106.3125 C 17.25 -109.101562 17.972656 -111.894531 19.421875 -114.6875 C 20.878906 -117.488281 22.695312 -119.515625 24.875 -120.765625 C 25.90625 -121.285156 27.5625 -121.546875 29.84375 -121.546875 C 33.570312 -121.546875 37.328125 -120.710938 41.109375 -119.046875 C 44.890625 -117.390625 47.195312 -115.320312 48.03125 -112.84375 C 48.238281 -112.320312 48.34375 -111.539062 48.34375 -110.5 C 48.34375 -108.125 47.613281 -105.484375 46.15625 -102.578125 C 44.707031 -99.679688 42.894531 -97.222656 40.71875 -95.203125 C 38.539062 -93.179688 36.414062 -92.171875 34.34375 -92.171875 Z M 23.78125 0 C 21.082031 0 18.050781 -0.90625 14.6875 -2.71875 C 11.320312 -4.53125 8.421875 -6.65625 5.984375 -9.09375 C 3.546875 -11.53125 2.328125 -13.578125 2.328125 -15.234375 C 2.328125 -17.097656 3 -19.84375 4.34375 -23.46875 C 5.695312 -27.09375 7.71875 -32.066406 10.40625 -38.390625 C 12.476562 -43.253906 14.03125 -47.0625 15.0625 -49.8125 C 16.101562 -52.5625 16.625 -54.503906 16.625 -55.640625 C 16.625 -56.472656 16.128906 -57.378906 15.140625 -58.359375 C 14.160156 -59.347656 12.6875 -60.566406 10.71875 -62.015625 C 8.445312 -63.773438 6.765625 -65.171875 5.671875 -66.203125 C 4.585938 -67.242188 4.046875 -68.332031 4.046875 -69.46875 C 4.046875 -71.644531 5.054688 -74.179688 7.078125 -77.078125 C 9.097656 -79.984375 11.476562 -82.472656 14.21875 -84.546875 C 16.96875 -86.617188 19.328125 -87.65625 21.296875 -87.65625 C 23.679688 -87.65625 26.296875 -86.617188 29.140625 -84.546875 C 31.992188 -82.472656 34.429688 -80.007812 36.453125 -77.15625 C 38.472656 -74.3125 39.484375 -72.007812 39.484375 -70.25 C 39.484375 -65.6875 38.316406 -59.179688 35.984375 -50.734375 C 33.648438 -42.296875 30.671875 -33.207031 27.046875 -23.46875 C 29.535156 -24.601562 31.710938 -25.789062 33.578125 -27.03125 C 35.441406 -28.28125 38.03125 -30.203125 41.34375 -32.796875 C 46.007812 -31.242188 49.425781 -29.039062 51.59375 -26.1875 C 53.769531 -23.34375 54.859375 -20.257812 54.859375 -16.9375 C 54.859375 -14.25 53.125 -11.609375 49.65625 -9.015625 C 46.1875 -6.421875 41.960938 -4.269531 36.984375 -2.5625 C 32.015625 -0.851562 27.613281 0 23.78125 0 Z M 23.78125 0 "/></g></g></g><g fill="#5421a0" fill-opacity="1"><g transform="translate(1160.17752, 496.779897)"><g><path d="M 15.234375 0 C 13.472656 0 11.632812 -0.957031 9.71875 -2.875 C 7.800781 -4.789062 6.191406 -7.09375 4.890625 -9.78125 C 3.597656 -12.476562 2.953125 -14.863281 2.953125 -16.9375 C 2.953125 -18.695312 4.171875 -20.5625 6.609375 -22.53125 C 9.046875 -24.5 11.972656 -26.15625 15.390625 -27.5 C 18.804688 -28.851562 21.863281 -29.53125 24.5625 -29.53125 C 26.320312 -29.53125 28.082031 -28.625 29.84375 -26.8125 C 31.601562 -25 33.023438 -22.820312 34.109375 -20.28125 C 35.203125 -17.738281 35.75 -15.585938 35.75 -13.828125 C 35.75 -11.960938 34.53125 -9.941406 32.09375 -7.765625 C 29.65625 -5.585938 26.804688 -3.75 23.546875 -2.25 C 20.285156 -0.75 17.515625 0 15.234375 0 Z M 15.234375 0 "/></g></g></g><g fill="#5421a0" fill-opacity="1"><g transform="translate(1209.132916, 496.779897)"><g><path d="M 54.546875 -24.5625 C 48.234375 -19.582031 41.890625 -15.28125 35.515625 -11.65625 C 29.140625 -8.03125 23.878906 -6.21875 19.734375 -6.21875 C 17.347656 -6.21875 14.726562 -7.125 11.875 -8.9375 C 9.03125 -10.75 6.625 -12.972656 4.65625 -15.609375 C 2.6875 -18.253906 1.703125 -20.71875 1.703125 -23 C 1.703125 -31.601562 3.4375 -41.003906 6.90625 -51.203125 C 10.382812 -61.410156 15.101562 -70.035156 21.0625 -77.078125 C 27.019531 -84.128906 33.570312 -87.65625 40.71875 -87.65625 C 43.519531 -87.65625 46.265625 -86.382812 48.953125 -83.84375 C 51.648438 -81.3125 53.773438 -78.488281 55.328125 -75.375 C 55.742188 -77.863281 56.441406 -79.832031 57.421875 -81.28125 C 58.410156 -82.738281 59.421875 -83.46875 60.453125 -83.46875 C 62.015625 -83.46875 64.398438 -82.457031 67.609375 -80.4375 C 70.816406 -78.414062 73.71875 -76.160156 76.3125 -73.671875 C 78.90625 -71.179688 80.203125 -69.316406 80.203125 -68.078125 C 80.203125 -64.140625 78.671875 -53.617188 75.609375 -36.515625 C 72.554688 -19.421875 69.238281 -2.796875 65.65625 13.359375 C 62.082031 29.523438 59.519531 38.90625 57.96875 41.5 C 55.582031 45.226562 51.878906 48.488281 46.859375 51.28125 C 41.835938 54.082031 36.941406 55.484375 32.171875 55.484375 C 27.710938 55.484375 23.203125 54.132812 18.640625 51.4375 C 14.085938 48.75 10.359375 45.4375 7.453125 41.5 C 4.554688 37.5625 3.109375 33.988281 3.109375 30.78125 C 3.109375 27.039062 5.304688 22.6875 9.703125 17.71875 C 14.109375 12.75 19.472656 7.800781 25.796875 2.875 C 32.117188 -2.039062 40.203125 -7.972656 50.046875 -14.921875 C 51.804688 -16.265625 54.445312 -18.179688 57.96875 -20.671875 Z M 46.15625 -67.921875 C 42.53125 -67.921875 39.132812 -65.613281 35.96875 -61 C 32.8125 -56.394531 30.144531 -50.644531 27.96875 -43.75 C 25.800781 -36.863281 24.351562 -30.101562 23.625 -23.46875 C 33.363281 -27.507812 41.132812 -33.15625 46.9375 -40.40625 C 52.738281 -47.664062 55.898438 -55.128906 56.421875 -62.796875 C 55.171875 -64.140625 53.585938 -65.328125 51.671875 -66.359375 C 49.753906 -67.398438 47.914062 -67.921875 46.15625 -67.921875 Z M 52.6875 0.46875 C 35.070312 14.25 26.265625 24.09375 26.265625 30 C 26.265625 32.070312 27.171875 33.859375 28.984375 35.359375 C 30.796875 36.859375 33.101562 38.078125 35.90625 39.015625 C 39.007812 35.390625 41.859375 30.46875 44.453125 24.25 C 47.046875 18.03125 49.789062 10.101562 52.6875 0.46875 Z M 52.6875 0.46875 "/></g></g></g><g fill="#5421a0" fill-opacity="1"><g transform="translate(1294.144386, 496.779897)"><g><path d="M 54.546875 -24.5625 C 48.234375 -19.582031 41.890625 -15.28125 35.515625 -11.65625 C 29.140625 -8.03125 23.878906 -6.21875 19.734375 -6.21875 C 17.347656 -6.21875 14.726562 -7.125 11.875 -8.9375 C 9.03125 -10.75 6.625 -12.972656 4.65625 -15.609375 C 2.6875 -18.253906 1.703125 -20.71875 1.703125 -23 C 1.703125 -31.601562 3.4375 -41.003906 6.90625 -51.203125 C 10.382812 -61.410156 15.101562 -70.035156 21.0625 -77.078125 C 27.019531 -84.128906 33.570312 -87.65625 40.71875 -87.65625 C 43.519531 -87.65625 46.265625 -86.382812 48.953125 -83.84375 C 51.648438 -81.3125 53.773438 -78.488281 55.328125 -75.375 C 55.742188 -77.863281 56.441406 -79.832031 57.421875 -81.28125 C 58.410156 -82.738281 59.421875 -83.46875 60.453125 -83.46875 C 62.015625 -83.46875 64.398438 -82.457031 67.609375 -80.4375 C 70.816406 -78.414062 73.71875 -76.160156 76.3125 -73.671875 C 78.90625 -71.179688 80.203125 -69.316406 80.203125 -68.078125 C 80.203125 -64.140625 78.671875 -53.617188 75.609375 -36.515625 C 72.554688 -19.421875 69.238281 -2.796875 65.65625 13.359375 C 62.082031 29.523438 59.519531 38.90625 57.96875 41.5 C 55.582031 45.226562 51.878906 48.488281 46.859375 51.28125 C 41.835938 54.082031 36.941406 55.484375 32.171875 55.484375 C 27.710938 55.484375 23.203125 54.132812 18.640625 51.4375 C 14.085938 48.75 10.359375 45.4375 7.453125 41.5 C 4.554688 37.5625 3.109375 33.988281 3.109375 30.78125 C 3.109375 27.039062 5.304688 22.6875 9.703125 17.71875 C 14.109375 12.75 19.472656 7.800781 25.796875 2.875 C 32.117188 -2.039062 40.203125 -7.972656 50.046875 -14.921875 C 51.804688 -16.265625 54.445312 -18.179688 57.96875 -20.671875 Z M 46.15625 -67.921875 C 42.53125 -67.921875 39.132812 -65.613281 35.96875 -61 C 32.8125 -56.394531 30.144531 -50.644531 27.96875 -43.75 C 25.800781 -36.863281 24.351562 -30.101562 23.625 -23.46875 C 33.363281 -27.507812 41.132812 -33.15625 46.9375 -40.40625 C 52.738281 -47.664062 55.898438 -55.128906 56.421875 -62.796875 C 55.171875 -64.140625 53.585938 -65.328125 51.671875 -66.359375 C 49.753906 -67.398438 47.914062 -67.921875 46.15625 -67.921875 Z M 52.6875 0.46875 C 35.070312 14.25 26.265625 24.09375 26.265625 30 C 26.265625 32.070312 27.171875 33.859375 28.984375 35.359375 C 30.796875 36.859375 33.101562 38.078125 35.90625 39.015625 C 39.007812 35.390625 41.859375 30.46875 44.453125 24.25 C 47.046875 18.03125 49.789062 10.101562 52.6875 0.46875 Z M 52.6875 0.46875 "/></g></g></g></svg>